<svg width="1073" height="292" xmlns="http://www.w3.org/2000/svg" xmlns:xlink="http://www.w3.org/1999/xlink" xml:space="preserve" overflow="hidden"><g transform="translate(-124 -184)"><g><path d="M21.0547 249.429C20.44 248.968 19.9789 242.053 19.9789 234.061L19.9789 219.768 96.0526 219.768 172.126 219.768 172.126 235.137 172.126 250.505 97.1284 250.505C55.7874 250.505 21.5158 250.044 21.0547 249.429Z" stroke="#ECEDEE" stroke-width="0.153686" stroke-linecap="butt" stroke-linejoin="miter" stroke-miterlimit="4" stroke-opacity="1" fill="#E04614" fill-rule="nonzero" fill-opacity="1" transform="matrix(1.0029 0 0 -1 124.899 476)"/><path d="M228.067 248.507C227.606 247.278 227.453 240.516 227.76 233.446L228.221 220.537 297.84 220.076 367.305 219.768 367.305 235.137 367.305 250.505 298.147 250.505C241.899 250.505 228.682 250.198 228.067 248.507Z" stroke="#ECEDEE" stroke-width="0.153686" stroke-linecap="butt" stroke-linejoin="miter" stroke-miterlimit="4" stroke-opacity="1" fill="#E04614" fill-rule="nonzero" fill-opacity="1" transform="matrix(1.0029 0 0 -1 124.899 476)"/><path d="M420.787 249.583C420.019 248.968 419.558 242.053 419.558 234.215L419.558 219.922 468.429 219.461 517.455 219 524.832 214.389C534.053 208.703 537.895 202.556 538.971 191.644 540.507 177.198 532.669 165.364 517.916 159.678 514.074 158.295 499.781 157.526 466.124 157.065L419.558 156.451 419.558 109.731 419.558 63.0105 435.695 63.0105 451.832 63.0105 451.832 95.2842 451.832 127.558 473.04 127.558 494.095 127.558 516.379 95.8989C528.52 78.379 539.278 63.9326 540.2 63.4716 541.122 63.1642 550.036 63.1642 559.872 63.3179L577.853 63.7789 553.263 98.2042C539.739 117.261 529.135 133.244 529.75 133.705 530.518 134.32 534.206 135.857 538.202 137.394 562.177 146.154 576.623 173.817 571.705 201.48 567.709 224.225 554.032 238.518 528.674 246.663 521.604 248.968 512.537 249.583 471.042 250.044 443.994 250.505 421.402 250.198 420.787 249.583Z" stroke="#ECEDEE" stroke-width="0.153686" stroke-linecap="butt" stroke-linejoin="miter" stroke-miterlimit="4" stroke-opacity="1" fill="#E04614" fill-rule="nonzero" fill-opacity="1" transform="matrix(1.0029 0 0 -1 124.899 476)"/><path d="M705.411 248.2C659.305 240.362 627.032 203.939 627.032 159.524L627.032 147.537 643.937 147.537 660.842 147.537 660.842 156.451C660.996 180.118 673.752 203.017 692.194 212.392 704.335 218.539 712.48 219.768 744.293 219.768L774.568 219.768 774.568 235.137 774.568 250.505 745.829 250.352C729.846 250.198 711.712 249.276 705.411 248.2Z" stroke="#ECEDEE" stroke-width="0.153686" stroke-linecap="butt" stroke-linejoin="miter" stroke-miterlimit="4" stroke-opacity="1" fill="#E04614" fill-rule="nonzero" fill-opacity="1" transform="matrix(1.0029 0 0 -1 124.899 476)"/><path d="M887.219 249.429C887.68 248.661 897.055 222.688 908.12 191.337 919.185 160.139 934.4 118.644 941.777 99.1263L955.455 63.7789 973.436 63.3179 991.263 62.8568 987.728 72.5389C985.731 77.9179 970.362 120.027 953.457 166.44L923.027 250.505 904.739 250.505C894.75 250.505 886.912 250.044 887.219 249.429Z" stroke="#ECEDEE" stroke-width="0.153686" stroke-linecap="butt" stroke-linejoin="miter" stroke-miterlimit="4" stroke-opacity="1" fill="#E04614" fill-rule="nonzero" fill-opacity="1" transform="matrix(1.0029 0 0 -1 124.899 476)"/><path d="M860.939 185.651C851.564 162.444 818.983 82.2211 814.68 71.1558L811.453 63.0105 828.819 63.0105 846.032 63.0105 866.318 112.804 886.758 162.598 878.92 183.499C874.463 195.025 870.467 204.4 869.853 204.4 869.238 204.4 865.242 195.947 860.939 185.651Z" stroke="#ECEDEE" stroke-width="0.153686" stroke-linecap="butt" stroke-linejoin="miter" stroke-miterlimit="4" stroke-opacity="1" fill="#E04614" fill-rule="nonzero" fill-opacity="1" transform="matrix(1.0029 0 0 -1 124.899 476)"/><path d="M79.9158 126.021 79.9158 63.0105 96.8211 63.0105 113.726 63.0105 113.419 125.714 112.958 188.263 96.5137 188.724 79.9158 189.185 79.9158 126.021Z" stroke="#ECEDEE" stroke-width="0.153686" stroke-linecap="butt" stroke-linejoin="miter" stroke-miterlimit="4" stroke-opacity="1" fill="#E04614" fill-rule="nonzero" fill-opacity="1" transform="matrix(1.0029 0 0 -1 124.899 476)"/><path d="M227.453 157.526 227.453 142.926 290.463 142.926 353.474 142.926 353.474 157.526 353.474 172.126 290.463 172.126 227.453 172.126 227.453 157.526Z" stroke="#ECEDEE" stroke-width="0.153686" stroke-linecap="butt" stroke-linejoin="miter" stroke-miterlimit="4" stroke-opacity="1" fill="#E04614" fill-rule="nonzero" fill-opacity="1" transform="matrix(1.0029 0 0 -1 124.899 476)"/><path d="M740.143 150.611C738.299 129.402 728.924 113.419 712.787 102.968 699.417 94.3621 688.198 92.2105 654.848 92.2105L627.032 92.2105 627.032 77.6105 627.032 63.0105 656.846 63.0105C691.272 63.0105 704.949 65.0084 721.24 72.5389 753.821 87.6 774.568 118.491 774.568 152.147L774.568 161.368 757.817 161.368 741.219 161.368 740.143 150.611Z" stroke="#ECEDEE" stroke-width="0.153686" stroke-linecap="butt" stroke-linejoin="miter" stroke-miterlimit="4" stroke-opacity="1" fill="#E04614" fill-rule="nonzero" fill-opacity="1" transform="matrix(1.0029 0 0 -1 124.899 476)"/><path d="M227.453 77.6105 227.453 63.0105 297.379 63.0105 367.305 63.0105 367.305 77.6105 367.305 92.2105 297.379 92.2105 227.453 92.2105 227.453 77.6105Z" stroke="#ECEDEE" stroke-width="0.153686" stroke-linecap="butt" stroke-linejoin="miter" stroke-miterlimit="4" stroke-opacity="1" fill="#E04614" fill-rule="nonzero" fill-opacity="1" transform="matrix(1.0029 0 0 -1 124.899 476)"/></g></g></svg>